<svg width="68" height="68" viewBox="0 0 68 68" fill="none" xmlns="http://www.w3.org/2000/svg">
<path d="M59.5 8.5H8.50004C5.38337 8.5 2.83337 11.05 2.83337 14.1667V48.1667C2.83337 51.2833 5.38337 53.8333 8.50004 53.8333H22.6667V59.5H45.3334V53.8333H59.5C62.6167 53.8333 65.1384 51.2833 65.1384 48.1667L65.1667 14.1667C65.1667 11.05 62.6167 8.5 59.5 8.5ZM59.5 48.1667H8.50004V14.1667H59.5V48.1667ZM53.8334 22.6667H22.6667V28.3333H53.8334V22.6667ZM53.8334 34H22.6667V39.6667H53.8334V34ZM19.8334 22.6667H14.1667V28.3333H19.8334V22.6667ZM19.8334 34H14.1667V39.6667H19.8334V34Z" fill="white"/>
</svg>
