<svg width="68" height="68" viewBox="0 0 68 68" fill="none" xmlns="http://www.w3.org/2000/svg">
<path d="M56.6666 5.66663H11.3333C8.21663 5.66663 5.69496 8.21663 5.69496 11.3333L5.66663 62.3333L17 51H56.6666C59.7833 51 62.3333 48.45 62.3333 45.3333V11.3333C62.3333 8.21663 59.7833 5.66663 56.6666 5.66663ZM22.6666 39.6666H17V34H22.6666V39.6666ZM22.6666 31.1666H17V25.5H22.6666V31.1666ZM22.6666 22.6666H17V17H22.6666V22.6666ZM42.5 39.6666H28.3333V34H42.5V39.6666ZM51 31.1666H28.3333V25.5H51V31.1666ZM51 22.6666H28.3333V17H51V22.6666Z" fill="white"/>
</svg>
